<mxfile host="app.diagrams.net" modified="2023-12-12T14:15:24.440Z" agent="Mozilla/5.0 (Macintosh; Intel Mac OS X 10_15_7) AppleWebKit/537.36 (KHTML, like Gecko) Chrome/119.0.0.0 Safari/537.36" etag="MpR3vPY7Y8T3Yaef_HGP" version="22.1.7" type="github">
  <diagram name="Page-1" id="i3Zlioy_ioQCidn3keNF">
    <mxGraphModel dx="1026" dy="569" grid="1" gridSize="10" guides="1" tooltips="1" connect="1" arrows="1" fold="1" page="1" pageScale="1" pageWidth="850" pageHeight="1100" math="0" shadow="0">
      <root>
        <mxCell id="0" />
        <mxCell id="1" parent="0" />
        <mxCell id="eJ0mtBchv6df0zUHHSfI-1" value="" style="rounded=0;whiteSpace=wrap;html=1;" vertex="1" parent="1">
          <mxGeometry x="320" y="200" width="250" height="200" as="geometry" />
        </mxCell>
        <mxCell id="eJ0mtBchv6df0zUHHSfI-2" value="&lt;font style=&quot;font-size: 14px;&quot;&gt;main.readyStorage&lt;/font&gt;" style="text;html=1;strokeColor=none;fillColor=none;align=center;verticalAlign=middle;whiteSpace=wrap;rounded=0;" vertex="1" parent="1">
          <mxGeometry x="410" y="170" width="60" height="30" as="geometry" />
        </mxCell>
        <mxCell id="eJ0mtBchv6df0zUHHSfI-3" value="" style="rounded=0;whiteSpace=wrap;html=1;" vertex="1" parent="1">
          <mxGeometry x="355" y="240" width="180" height="140" as="geometry" />
        </mxCell>
        <mxCell id="eJ0mtBchv6df0zUHHSfI-4" value="&lt;font style=&quot;font-size: 14px;&quot;&gt;tsdb.DB&lt;/font&gt;" style="text;html=1;strokeColor=none;fillColor=none;align=center;verticalAlign=middle;whiteSpace=wrap;rounded=0;" vertex="1" parent="1">
          <mxGeometry x="410" y="211" width="60" height="30" as="geometry" />
        </mxCell>
      </root>
    </mxGraphModel>
  </diagram>
</mxfile>
